<?xml version="1.0" encoding="UTF-8"?>
<svg width="139px" height="31px" viewBox="0 0 139 31" version="1.1" xmlns="http://www.w3.org/2000/svg" xmlns:xlink="http://www.w3.org/1999/xlink">
    <title>Group 15</title>
    <g id="Page-1" stroke="none" stroke-width="1" fill="none" fill-rule="evenodd">
        <g id="MPACT-Course-Page-Light" transform="translate(-46.000000, -43.000000)" fill="#171718" fill-rule="nonzero">
            <g id="Group-15" transform="translate(46.000000, 43.000000)">
                <g id="MCR_Codes_M_REVERSE">
                    <polygon id="Path" points="12.7972916 26.0262378 14.9682607 23.8616166 17.2471435 21.576386 19.4117647 19.4117647 29.9365214 8.8933559 29.9365214 13.2162505 21.576386 21.576386 19.4117647 23.7410072 17.1265341 26.0262378 14.9682607 28.1845112 13.1527719 30 12.7338129 30 8.82987727 30 10.7786712 28.0448582"></polygon>
                    <polygon id="Path" points="21.436733 25.7596276 23.5950063 23.6013542 29.9365214 17.2661871 29.9365214 21.5890817 25.7596276 25.7596276 23.5950063 27.9305967 21.525603 30 21.1066441 30 17.2027084 30 19.1515023 28.0448582"></polygon>
                    <polygon id="Path" points="27.7909437 27.7909437 29.9365214 25.6580618 29.9365214 29.9809564 29.9174778 30 29.8730427 30 25.6707575 30 25.5882353 30 25.6326703 29.9619128"></polygon>
                    <polygon id="Path" points="0 0 0 4.32924249 1.65044435 5.97968684 4.71011426 9.03935675 12.7972916 17.1328819 10.5184088 19.4117647 0.146000846 9.03935675 0 8.8933559 0 13.2162505 8.35378756 21.576386 6.3288193 23.6013542 0 17.2661871 0 21.5890817 4.17054592 25.7596276 2.13922979 27.7909437 0 25.6580618 0 29.9809564 0.0126957258 30 4.34193821 30 4.30385104 29.9619128 6.33516716 27.9305967 8.4997884 25.7596276 10.5247567 23.7410072 12.68303 21.576386 14.9682607 19.2911553 17.1328819 17.1328819 25.2264071 9.03935675 28.286077 5.97968684 29.9365214 4.32924249 29.9365214 0 26.8768515 3.05966991 14.9682607 14.9682607 9.03935675 9.03935675 5.97968684 5.97968684 3.05966991 3.05966991"></polygon>
                </g>
                <g id="Group-3" transform="translate(42.094000, 0.400000)">
                    <path d="M2.71295216,12.252042 L2.71295216,7.33372229 C2.71295216,6.0210035 3.39556593,5.35589265 4.35822637,5.35589265 C5.3033839,5.35589265 5.82847141,5.98599767 5.82847141,7.01866978 L5.82847141,12.252042 L8.08634772,12.252042 L8.08634772,7.33372229 C8.08634772,6.0210035 8.71645274,5.35589265 9.71411902,5.35589265 C10.6592765,5.35589265 11.1843641,5.98599767 11.1843641,7.01866978 L11.1843641,12.252042 L13.4422404,12.252042 L13.4422404,6.86114352 C13.4422404,4.67327888 12.1295216,3.25554259 10.134189,3.25554259 C8.94399067,3.25554259 8.06884481,3.72812135 7.52625438,4.51575263 C7.0361727,3.71061844 6.23103851,3.25554259 5.14585764,3.25554259 C4.02567095,3.25554259 3.20303384,3.69311552 2.71295216,4.42823804 L2.71295216,3.50058343 L0.455075846,3.50058343 L0.455075846,12.252042 L2.71295216,12.252042 Z M19.1656943,12.4970828 C20.4434072,12.4970828 21.3885648,12.0070012 22.0186698,11.2193699 L22.0186698,12.252042 L24.2765461,12.252042 L24.2765461,3.50058343 L22.0186698,3.50058343 L22.0186698,4.53325554 C21.3885648,3.74562427 20.4434072,3.25554259 19.1656943,3.25554259 C16.8378063,3.25554259 14.9124854,5.26837806 14.9124854,7.87631272 C14.9124854,10.4842474 16.8378063,12.4970828 19.1656943,12.4970828 Z M19.5857643,10.344224 C18.2030338,10.344224 17.1703617,9.34655776 17.1703617,7.87631272 C17.1703617,6.40606768 18.2030338,5.4084014 19.5857643,5.4084014 C20.9859977,5.4084014 22.0186698,6.40606768 22.0186698,7.87631272 C22.0186698,9.34655776 20.9859977,10.344224 19.5857643,10.344224 Z M28.5822637,12.252042 L28.5822637,7.52625438 C28.5822637,6.00350058 29.4049008,5.35589265 30.5075846,5.35589265 C31.5227538,5.35589265 32.2403734,5.96849475 32.2403734,7.15869312 L32.2403734,12.252042 L34.4982497,12.252042 L34.4982497,6.87864644 C34.4982497,4.55075846 33.0455076,3.25554259 31.1901984,3.25554259 C30.0175029,3.25554259 29.1073512,3.69311552 28.5822637,4.48074679 L28.5822637,3.50058343 L26.3243874,3.50058343 L26.3243874,12.252042 L28.5822637,12.252042 Z M40.5892649,12.4970828 C42.3045508,12.4970828 43.7922987,11.5869312 44.5449242,10.2217036 L42.5845974,9.10151692 C42.2345391,9.81913652 41.4819137,10.2567095 40.571762,10.2567095 C39.2240373,10.2567095 38.2263711,9.25904317 38.2263711,7.87631272 C38.2263711,6.47607935 39.2240373,5.47841307 40.571762,5.47841307 C41.4644107,5.47841307 42.2170362,5.93348891 42.5670945,6.65110852 L44.5099183,5.5134189 C43.7922987,4.16569428 42.3045508,3.25554259 40.5892649,3.25554259 C37.9288215,3.25554259 35.9684947,5.26837806 35.9684947,7.87631272 C35.9684947,10.4842474 37.9288215,12.4970828 40.5892649,12.4970828 Z M48.0630105,12.252042 L48.0630105,7.52625438 C48.0630105,6.00350058 48.8856476,5.35589265 49.9883314,5.35589265 C51.0035006,5.35589265 51.7211202,5.96849475 51.7211202,7.15869312 L51.7211202,12.252042 L53.9789965,12.252042 L53.9789965,6.87864644 C53.9789965,4.55075846 52.5262544,3.25554259 50.6709452,3.25554259 C49.4982497,3.25554259 48.588098,3.69311552 48.0630105,4.48074679 L48.0630105,0 L45.8051342,0 L45.8051342,12.252042 L48.0630105,12.252042 Z M60.2450408,12.4970828 C61.9253209,12.4970828 63.2380397,11.8144691 64.0606768,10.6242707 L62.2403734,9.57409568 C61.8553092,10.0816803 61.1551925,10.4492415 60.2800467,10.4492415 C59.0898483,10.4492415 58.1271879,9.95915986 57.8121354,8.80396733 L64.4107351,8.80396733 C64.4632439,8.50641774 64.4982497,8.20886814 64.4982497,7.87631272 C64.4982497,5.3033839 62.6604434,3.25554259 60.0700117,3.25554259 C57.3220537,3.25554259 55.4492415,5.26837806 55.4492415,7.87631272 C55.4492415,10.4842474 57.3045508,12.4970828 60.2450408,12.4970828 Z M62.2403734,7.05367561 L57.7771295,7.05367561 C58.0396733,5.93348891 58.8623104,5.28588098 60.0700117,5.28588098 C61.0151692,5.28588098 61.9603267,5.79346558 62.2403734,7.05367561 Z M69.1540257,12.4970828 C71.0268378,12.4970828 72.672112,11.5869312 72.672112,9.6966161 C72.672112,6.47607935 68.1563594,7.28121354 68.1563594,5.98599767 C68.1563594,5.5134189 68.6114352,5.26837806 69.1715286,5.26837806 C69.8191365,5.26837806 70.3092182,5.60093349 70.571762,6.16102684 L72.4970828,5.11085181 C71.8144691,3.90315053 70.5892649,3.25554259 69.1715286,3.25554259 C67.3687281,3.25554259 65.8459743,4.25320887 65.8459743,6.03850642 C65.8459743,9.11901984 70.361727,8.41890315 70.361727,9.6966161 C70.361727,10.2042007 69.8716453,10.4492415 69.1540257,10.4492415 C68.2788798,10.4492415 67.6837806,10.0291715 67.4387398,9.31155193 L65.4784131,10.4142357 C66.1085181,11.7619603 67.403734,12.4970828 69.1540257,12.4970828 Z M79.218203,12.252042 L79.218203,10.2042007 C77.9229872,10.2742124 77.2403734,10.2567095 77.2403734,9.31155193 L77.2403734,5.67094516 L79.218203,5.67094516 L79.218203,3.50058343 L77.2403734,3.50058343 L77.2403734,1.05017503 L74.9824971,1.7327888 L74.9824971,3.50058343 L73.4597433,3.50058343 L73.4597433,5.67094516 L74.9824971,5.67094516 L74.9824971,9.31155193 C74.9824971,11.6744457 76.050175,12.6021004 79.218203,12.252042 Z M85.2917153,12.4970828 C86.9719953,12.4970828 88.2847141,11.8144691 89.1073512,10.6242707 L87.2870478,9.57409568 C86.9019837,10.0816803 86.201867,10.4492415 85.3267211,10.4492415 C84.1365228,10.4492415 83.1738623,9.95915986 82.8588098,8.80396733 L89.4574096,8.80396733 C89.5099183,8.50641774 89.5449242,8.20886814 89.5449242,7.87631272 C89.5449242,5.3033839 87.7071179,3.25554259 85.1166861,3.25554259 C82.3687281,3.25554259 80.495916,5.26837806 80.495916,7.87631272 C80.495916,10.4842474 82.3512252,12.4970828 85.2917153,12.4970828 Z M87.2870478,7.05367561 L82.823804,7.05367561 C83.0863477,5.93348891 83.9089848,5.28588098 85.1166861,5.28588098 C86.0618436,5.28588098 87.0070012,5.79346558 87.2870478,7.05367561 Z M93.378063,12.252042 L93.378063,8.06884481 C93.378063,6.23103851 94.865811,5.70595099 96.0385064,5.84597433 L96.0385064,3.32555426 C94.9358226,3.32555426 93.8331389,3.81563594 93.378063,5.00583431 L93.378063,3.50058343 L91.1201867,3.50058343 L91.1201867,12.252042 L93.378063,12.252042 Z M4.62077013,30 C6.33605601,30 7.82380397,29.0898483 8.5764294,27.7246208 L6.61610268,26.6044341 C6.26604434,27.3220537 5.5134189,27.7596266 4.60326721,27.7596266 C3.25554259,27.7596266 2.25787631,26.7619603 2.25787631,25.3792299 C2.25787631,23.9789965 3.25554259,22.9813302 4.60326721,22.9813302 C5.49591599,22.9813302 6.24854142,23.4364061 6.59859977,24.1540257 L8.54142357,23.0163361 C7.82380397,21.6686114 6.33605601,20.7584597 4.62077013,20.7584597 C1.96032672,20.7584597 0,22.7712952 0,25.3792299 C0,27.9871645 1.96032672,30 4.62077013,30 Z M14.0023337,30 C16.5752625,30 18.6406068,27.9871645 18.6406068,25.3792299 C18.6406068,22.7712952 16.5752625,20.7584597 14.0023337,20.7584597 C11.4294049,20.7584597 9.38156359,22.7712952 9.38156359,25.3792299 C9.38156359,27.9871645 11.4294049,30 14.0023337,30 Z M14.0023337,27.7946324 C12.672112,27.7946324 11.6394399,26.7969662 11.6394399,25.3792299 C11.6394399,23.9614936 12.672112,22.9638273 14.0023337,22.9638273 C15.3500583,22.9638273 16.3827305,23.9614936 16.3827305,25.3792299 C16.3827305,26.7969662 15.3500583,27.7946324 14.0023337,27.7946324 Z M24.0315053,30 C25.3092182,30 26.2368728,29.5274212 26.8669778,28.722287 L26.8669778,29.7549592 L29.1248541,29.7549592 L29.1248541,17.5029172 L26.8669778,17.5029172 L26.8669778,22.0361727 C26.2368728,21.2310385 25.3092182,20.7584597 24.0315053,20.7584597 C21.6861144,20.7584597 19.7607935,22.7712952 19.7607935,25.3792299 C19.7607935,27.9871645 21.6861144,30 24.0315053,30 Z M24.4515753,27.8471412 C23.0513419,27.8471412 22.0186698,26.8494749 22.0186698,25.3792299 C22.0186698,23.9089848 23.0513419,22.9113186 24.4515753,22.9113186 C25.8343057,22.9113186 26.8669778,23.9089848 26.8669778,25.3792299 C26.8669778,26.8494749 25.8343057,27.8471412 24.4515753,27.8471412 Z M35.5309218,30 C37.2112019,30 38.5239207,29.3173862 39.3465578,28.1271879 L37.5262544,27.0770128 C37.1411902,27.5845974 36.4410735,27.9521587 35.5659277,27.9521587 C34.3757293,27.9521587 33.4130688,27.462077 33.0980163,26.3068845 L39.6966161,26.3068845 C39.7491249,26.0093349 39.7841307,25.7117853 39.7841307,25.3792299 C39.7841307,22.8063011 37.9463244,20.7584597 35.3558926,20.7584597 C32.6079347,20.7584597 30.7351225,22.7712952 30.7351225,25.3792299 C30.7351225,27.9871645 32.5904317,30 35.5309218,30 Z M37.5262544,24.5565928 L33.0630105,24.5565928 C33.3255543,23.4364061 34.1481914,22.7887981 35.3558926,22.7887981 C36.3010502,22.7887981 37.2462077,23.2963827 37.5262544,24.5565928 Z M44.4399067,30 C46.3127188,30 47.957993,29.0898483 47.957993,27.1995333 C47.957993,23.9789965 43.4422404,24.7841307 43.4422404,23.4889148 C43.4422404,23.0163361 43.8973162,22.7712952 44.4574096,22.7712952 C45.1050175,22.7712952 45.5950992,23.1038506 45.8576429,23.663944 L47.7829638,22.613769 C47.1003501,21.4060677 45.8751459,20.7584597 44.4574096,20.7584597 C42.6546091,20.7584597 41.1318553,21.756126 41.1318553,23.5414236 C41.1318553,26.621937 45.6476079,25.9218203 45.6476079,27.1995333 C45.6476079,27.7071179 45.1575263,27.9521587 44.4399067,27.9521587 C43.5647608,27.9521587 42.9696616,27.5320887 42.7246208,26.8144691 L40.764294,27.9171529 C41.3943991,29.2648775 42.6896149,30 44.4399067,30 Z" id="manchestercodes"></path>
                </g>
            </g>
        </g>
    </g>
</svg>